<svg xmlns="http://www.w3.org/2000/svg" fill="none" viewBox="0 0 16 16"><path fill="#000000" d="M3.21333 11.5167C2.75733 11.5167 2.344 11.1433 2.344 10.69C2.344 10.2367 2.71733 9.86133 3.214 9.86133C3.71267 9.86133 4.08733 10.2347 4.08733 10.6893C4.08733 11.144 3.67267 11.516 3.21733 11.516L3.21333 11.5167ZM13.888 7.008C13.798 6.34667 13.388 5.808 12.848 5.39467L12.638 5.228L12.4687 5.43467C12.1393 5.808 12.0087 6.47 12.0487 6.96467C12.0887 7.33933 12.2087 7.71133 12.418 8.00067C12.2487 8.08733 12.0393 8.16733 11.878 8.252C11.5161 8.36752 11.1379 8.4238 10.758 8.41867H0.0646667L0.0246667 8.66533C-0.0579994 9.4712 0.0711477 10.2847 0.399333 11.0253L0.562 11.3153V11.3553C1.562 13.0107 3.342 13.7553 5.28067 13.7553C9.01 13.7553 12.0687 12.142 13.5187 8.66667C14.4687 8.708 15.428 8.46 15.8787 7.54933L15.9987 7.34267L15.7987 7.218C15.2587 6.88867 14.5187 6.84467 13.8987 7.01133L13.8867 7.01267L13.888 7.008ZM8.54933 6.34667H6.93067V7.96H8.55067V6.34533L8.54933 6.34733V6.34667ZM8.54933 4.318H6.93067V5.93133H8.55067V4.32L8.54933 4.318ZM8.54933 2.24866H6.93067V3.862H8.55067V2.24866H8.54933ZM10.5293 6.34667H8.92V7.96H10.5333V6.34533L10.5287 6.34733L10.5293 6.34667ZM4.53067 6.34667H2.922V7.96H4.53667V6.34533L4.53 6.34733L4.53067 6.34667ZM6.55067 6.34667H4.95067V7.96H6.56V6.34533L6.55 6.34733L6.55067 6.34667ZM2.53067 6.34667H0.933333V7.96H2.552V6.34533L2.532 6.34733L2.53067 6.34667ZM6.55067 4.318H4.95067V5.93133H6.56V4.32L6.55 4.318H6.55067ZM4.52067 4.318H2.92467V5.93133H4.53333V4.32L4.52267 4.318H4.52067Z"/></svg>
